# xmcd
#
# Track frame offsets: 
#        150
#        24102
#        42090
#
# Disc length: 811 seconds
#
# Revision: 0
# Processed by: cddbd v1.5.2PL0 Copyright (c) Steve Scherf et al.
# Submitted via: ExactAudioCopy v0.95a4
#
DISCID=14032903
DTITLE=ZOOCO - Heavenly Love
DYEAR=2000
DGENRE=JPop
TTITLE0=Heavenly Love
TTITLE1=Freak Like Me (feat. DJ WADA-K, MICHICO and TAIJI)
TTITLE2=Grow-Mellow-Flow (DJ Skribble&Kirk Yano NYC Remix)
EXTD=
EXTT0=
EXTT1=
EXTT2=
PLAYORDER=
